<?xml version="1.0" encoding="UTF-8" standalone="no"?>
<svg
   xmlns:dc="http://purl.org/dc/elements/1.1/"
   xmlns:cc="http://creativecommons.org/ns#"
   xmlns:rdf="http://www.w3.org/1999/02/22-rdf-syntax-ns#"
   xmlns:svg="http://www.w3.org/2000/svg"
   xmlns="http://www.w3.org/2000/svg"
   xmlns:xlink="http://www.w3.org/1999/xlink"
   version="1.1"
   id="svg6026"
   viewBox="0 0 422.64499 388.54401"
   height="109.65575mm"
   width="119.27981mm">
  <defs
     id="defs6028">
    <radialGradient
       gradientUnits="userSpaceOnUse"
       r="71.75"
       cy="96.495598"
       cx="236.52541"
       id="SVGID_21_">
      <stop
         id="stop4801"
         style="stop-color:#E05121"
         offset="0" />
      <stop
         id="stop4803"
         style="stop-color:#FFFFFF;stop-opacity:0"
         offset="1" />
    </radialGradient>
    <clipPath
       id="SVGID_20_">
      <use
         id="use4798"
         overflow="visible"
         xlink:href="#SVGID_19_"
         style="overflow:visible"
         x="0"
         y="0"
         width="100%"
         height="100%" />
    </clipPath>
    <linearGradient
       gradientTransform="matrix(-0.8336,0.5523,-0.5523,-0.8336,693.7793,48.3833)"
       y2="-40.979301"
       x2="435.79391"
       y1="185.6978"
       x1="435.79391"
       gradientUnits="userSpaceOnUse"
       id="SVGID_16_">
      <stop
         id="stop4772"
         style="stop-color:#FFFFFF"
         offset="0" />
      <stop
         id="stop4774"
         style="stop-color:#FFFFFF;stop-opacity:0"
         offset="1" />
    </linearGradient>
    <clipPath
       id="SVGID_15_">
      <use
         id="use4769"
         overflow="visible"
         xlink:href="#SVGID_14_"
         style="overflow:visible"
         x="0"
         y="0"
         width="100%"
         height="100%" />
    </clipPath>
    <linearGradient
       gradientTransform="matrix(0.9708,-0.24,0.24,0.9708,-34.4707,93.5142)"
       y2="-22.3363"
       x2="186.9093"
       y1="129.9951"
       x1="271.20801"
       gradientUnits="userSpaceOnUse"
       id="SVGID_17_">
      <stop
         id="stop4779"
         style="stop-color:#FFFFFF"
         offset="0" />
      <stop
         id="stop4781"
         style="stop-color:#FFFFFF;stop-opacity:0"
         offset="1" />
    </linearGradient>
    <clipPath
       id="clipPath5845">
      <use
         id="use5847"
         overflow="visible"
         xlink:href="#SVGID_14_"
         style="overflow:visible"
         x="0"
         y="0"
         width="100%"
         height="100%" />
    </clipPath>
    <linearGradient
       y2="43.597"
       x2="202.4749"
       y1="154.6133"
       x1="263.91019"
       gradientUnits="userSpaceOnUse"
       id="SVGID_18_">
      <stop
         id="stop4786"
         style="stop-color:#FFFFFF"
         offset="0" />
      <stop
         id="stop4788"
         style="stop-color:#FFFFFF;stop-opacity:0"
         offset="1" />
    </linearGradient>
    <clipPath
       id="clipPath5852">
      <use
         id="use5854"
         overflow="visible"
         xlink:href="#SVGID_14_"
         style="overflow:visible"
         x="0"
         y="0"
         width="100%"
         height="100%" />
    </clipPath>
    <linearGradient
       y2="268.44241"
       x2="317.64899"
       y1="254.332"
       x1="308.1973"
       gradientUnits="userSpaceOnUse"
       id="SVGID_13_"
       gradientTransform="translate(9.6188857,10.487043)">
      <stop
         id="stop4757"
         style="stop-color:#EDEDED"
         offset="0" />
      <stop
         id="stop4759"
         style="stop-color:#FFFFFF;stop-opacity:0"
         offset="1" />
    </linearGradient>
    <linearGradient
       y2="268.44241"
       x2="293.772"
       y1="254.332"
       x1="284.32031"
       gradientUnits="userSpaceOnUse"
       id="SVGID_12_"
       gradientTransform="translate(9.6188857,10.487043)">
      <stop
         id="stop4750"
         style="stop-color:#EDEDED"
         offset="0" />
      <stop
         id="stop4752"
         style="stop-color:#FFFFFF;stop-opacity:0"
         offset="1" />
    </linearGradient>
    <linearGradient
       y2="268.44141"
       x2="269.85501"
       y1="254.3311"
       x1="260.40329"
       gradientUnits="userSpaceOnUse"
       id="SVGID_11_"
       gradientTransform="translate(9.6188857,10.487043)">
      <stop
         id="stop4743"
         style="stop-color:#EDEDED"
         offset="0" />
      <stop
         id="stop4745"
         style="stop-color:#FFFFFF;stop-opacity:0"
         offset="1" />
    </linearGradient>
    <linearGradient
       y2="235.52209"
       x2="258.67099"
       y1="178.6826"
       x1="204.44431"
       gradientUnits="userSpaceOnUse"
       id="SVGID_10_">
      <stop
         id="stop4734"
         style="stop-color:#E05121"
         offset="0" />
      <stop
         id="stop4736"
         style="stop-color:#BE572C;stop-opacity:0.6142"
         offset="0.3858" />
      <stop
         id="stop4738"
         style="stop-color:#806240;stop-opacity:0"
         offset="1" />
    </linearGradient>
    <clipPath
       id="SVGID_9_">
      <use
         id="use4731"
         overflow="visible"
         xlink:href="#SVGID_8_"
         style="overflow:visible"
         x="0"
         y="0"
         width="100%"
         height="100%" />
    </clipPath>
    <clipPath
       id="SVGID_7_">
      <use
         id="use4713"
         overflow="visible"
         xlink:href="#SVGID_6_"
         style="overflow:visible"
         x="0"
         y="0"
         width="100%"
         height="100%" />
    </clipPath>
    <linearGradient
       y2="52.049"
       x2="238.3501"
       y1="253.7886"
       x1="238.3501"
       gradientUnits="userSpaceOnUse"
       id="SVGID_5_">
      <stop
         id="stop4695"
         style="stop-color:#666666"
         offset="0" />
      <stop
         id="stop4697"
         style="stop-color:#242424"
         offset="1" />
    </linearGradient>
    <linearGradient
       y2="302.32129"
       x2="250.42239"
       y1="339.49509"
       x1="251.1436"
       gradientUnits="userSpaceOnUse"
       id="SVGID_3_">
      <stop
         id="stop4677"
         style="stop-color:#FFFFFF"
         offset="0" />
      <stop
         id="stop4679"
         style="stop-color:#FFFFFF;stop-opacity:0"
         offset="1" />
    </linearGradient>
    <clipPath
       id="SVGID_2_">
      <use
         id="use4674"
         overflow="visible"
         xlink:href="#SVGID_1_"
         style="overflow:visible"
         x="0"
         y="0"
         width="100%"
         height="100%" />
    </clipPath>
    <linearGradient
       y2="285.52271"
       x2="250.0529"
       y1="341.64551"
       x1="251.1416"
       gradientUnits="userSpaceOnUse"
       id="SVGID_4_">
      <stop
         id="stop4684"
         style="stop-color:#FFFFFF"
         offset="0" />
      <stop
         id="stop4686"
         style="stop-color:#FFFFFF;stop-opacity:0"
         offset="1" />
    </linearGradient>
    <clipPath
       id="clipPath5884">
      <use
         id="use5886"
         overflow="visible"
         xlink:href="#SVGID_1_"
         style="overflow:visible"
         x="0"
         y="0"
         width="100%"
         height="100%" />
    </clipPath>
  </defs>
  <metadata
     id="metadata6031">
    <rdf:RDF>
      <cc:Work
         rdf:about="">
        <dc:format>image/svg+xml</dc:format>
        <dc:type
           rdf:resource="http://purl.org/dc/dcmitype/StillImage" />
        <dc:title></dc:title>
      </cc:Work>
    </rdf:RDF>
  </metadata>
  <g
     id="layer1">
    <g
       transform="translate(-37.248886,-35.233045)"
       id="g6344">
      <g
         transform="translate(9.6188857,10.487043)"
         id="g4605">
        <path
           style="fill:#e05121"
           d="m 36.019,357.242 c -2.843,-2.438 -4.873,-5.717 -6.092,-9.849 -1.219,-4.128 -1.828,-8.427 -1.828,-12.895 0,-3.655 0.508,-7.31 1.523,-10.965 1.016,-3.657 2.605,-6.703 4.772,-9.139 3.519,-4.062 8.053,-6.463 13.605,-7.208 5.55,-0.743 10.56,-0.306 15.026,1.319 5.144,2.03 8.936,5.553 11.372,10.561 2.302,4.468 3.452,9.68 3.452,15.635 0,4.336 -0.476,8.056 -1.421,11.17 -0.949,3.115 -2.167,5.754 -3.655,7.92 -3.25,4.467 -7.381,7.244 -12.388,8.324 -4.467,1.219 -8.97,1.322 -13.505,0.305 -4.534,-1.014 -8.154,-2.74 -10.861,-5.178 z m 9.748,-35.739 c -2.844,3.116 -4.133,7.75 -3.859,13.911 0.271,6.162 1.423,10.457 3.453,12.894 0.813,1.085 2.233,1.999 4.264,2.742 2.031,0.744 4.094,0.813 6.193,0.201 2.098,-0.608 3.96,-2.131 5.585,-4.569 1.624,-2.435 2.503,-6.36 2.641,-11.777 0,-4.873 -0.781,-8.527 -2.336,-10.963 -1.558,-2.438 -3.351,-3.993 -5.382,-4.673 -2.029,-0.676 -4.062,-0.709 -6.092,-0.101 -2.032,0.609 -3.522,1.389 -4.467,2.335 z"
           id="path4607" />
        <path
           style="fill:#e05121"
           d="m 97.963,374.971 c 0,1.895 -0.679,3.52 -2.03,4.873 -1.356,1.352 -2.979,2.031 -4.874,2.031 l -6.904,0 0,-50.565 c 0,-9.472 2.772,-15.941 8.325,-19.392 5.551,-3.452 11.575,-5.18 18.073,-5.18 3.383,0 6.804,0.645 10.255,1.932 3.452,1.287 6.194,3.147 8.225,5.583 4.063,5.28 6.094,12.052 6.094,20.306 0,8.53 -2.031,15.433 -6.094,20.712 -4.062,5.148 -9.274,7.719 -15.637,7.719 -3.386,0 -6.365,-0.607 -8.935,-1.828 -2.71,-1.352 -4.873,-3.451 -6.498,-6.295 l 0,20.104 z m 23.149,-39.802 c 0,-5.28 -1.015,-9.342 -3.046,-12.184 -2.031,-2.843 -4.943,-4.264 -8.731,-4.264 -3.655,0 -6.499,1.421 -8.529,4.264 -1.897,2.572 -2.843,6.634 -2.843,12.184 0,5.146 1.015,9.005 3.046,11.575 2.031,2.842 4.941,4.265 8.732,4.265 3.519,0 6.294,-1.423 8.325,-4.265 2.032,-2.842 3.046,-6.702 3.046,-11.575 z"
           id="path4609" />
        <path
           style="fill:#e05121"
           d="m 179.926,345.322 10.154,0 c -1.489,5.688 -4.333,10.022 -8.528,12.997 -4.196,3.117 -9.478,4.672 -15.84,4.672 -7.716,0 -13.741,-2.504 -18.072,-7.516 -4.334,-4.874 -6.498,-11.843 -6.498,-20.916 0,-8.661 2.097,-15.433 6.295,-20.306 4.33,-5.006 10.356,-7.515 18.072,-7.515 8.125,0 14.417,2.438 18.886,7.312 4.331,5.009 6.498,11.98 6.498,20.916 0,0.543 0,1.016 0,1.422 0,0.404 0,0.678 0,0.812 0,0.679 -0.069,1.152 -0.203,1.422 l -35.131,0 c 0.133,4.196 1.149,7.31 3.046,9.341 1.758,2.168 4.397,3.249 7.92,3.249 2.301,0 4.264,-0.472 5.89,-1.422 0.406,-0.132 0.777,-0.37 1.118,-0.709 0.336,-0.336 0.709,-0.711 1.115,-1.117 0.133,-0.405 0.642,-0.945 1.522,-1.625 0.88,-0.676 2.134,-1.017 3.756,-1.017 z m -24.367,-15.84 20.712,0 c -0.271,-3.654 -1.217,-6.359 -2.84,-8.121 -1.762,-1.894 -4.266,-2.843 -7.516,-2.843 -2.979,0 -5.415,0.949 -7.311,2.843 -1.896,1.896 -2.913,4.604 -3.045,8.121 z"
           id="path4611" />
        <path
           style="fill:#e05121"
           d="m 244.393,361.975 -7.108,0 c -2.031,0 -3.689,-0.641 -4.975,-1.93 -1.289,-1.285 -1.93,-2.943 -1.93,-4.975 l 0,-27.618 c 0,-3.249 -0.983,-5.615 -2.944,-7.107 -1.963,-1.49 -4.162,-2.233 -6.601,-2.233 -2.436,0 -4.604,0.743 -6.497,2.233 -1.896,1.493 -2.844,3.858 -2.844,7.107 l 0,34.522 -14.217,0 0,-31.68 c 0,-9.204 2.405,-15.361 7.212,-18.477 4.804,-3.114 10.119,-4.805 15.941,-5.079 5.956,0 11.439,1.56 16.448,4.673 5.007,3.115 7.514,9.41 7.514,18.883 l 0,31.681 z"
           id="path4613" />
        <path
           style="fill:#424242"
           d="m 258.196,361.561 0,-63.867 c 0,-2.073 0.726,-3.836 2.176,-5.287 1.453,-1.454 3.216,-2.178 5.288,-2.178 l 7.259,0 0,26.543 29.445,0 0,-26.543 14.929,0 0,71.332 -14.929,0 0,-31.727 -29.445,0 0,31.727 -14.723,0 z"
           id="path4615" />
        <path
           style="fill:#424242"
           d="m 350.886,290.229 11.611,0 25.92,71.332 -15.552,0 -4.77,-14.722 -27.785,0 -4.562,14.722 -15.552,0 23.638,-66.563 c 1.245,-3.179 3.595,-4.769 7.052,-4.769 z m 3.316,14.308 -9.951,30.273 19.906,0 -9.955,-30.273 z"
           id="path4617" />
        <path
           style="fill:#424242"
           d="m 391.735,361.561 0,-63.867 c 0,-2.073 0.724,-3.836 2.176,-5.287 1.452,-1.454 3.217,-2.178 5.287,-2.178 l 26.129,0 c 7.325,0 12.924,1.522 16.797,4.562 3.867,3.316 5.806,7.812 5.806,13.478 0,3.596 -0.763,6.636 -2.282,9.125 -1.521,2.352 -3.664,4.216 -6.428,5.599 3.594,1.522 6.357,3.664 8.295,6.428 1.795,2.626 2.695,6.085 2.695,10.367 0,6.914 -2.213,12.306 -6.635,16.173 -4.563,3.732 -10.99,5.6 -19.286,5.6 l -32.554,0 z m 14.1,-43.753 16.796,0 c 3.595,0 6.222,-0.621 7.88,-1.865 1.659,-1.245 2.488,-3.18 2.488,-5.808 0,-2.623 -0.829,-4.561 -2.488,-5.804 -1.384,-1.104 -4.078,-1.659 -8.087,-1.659 l -16.589,0 0,15.136 z m 0,30.897 17.418,0 c 3.869,0 6.844,-0.758 8.917,-2.281 1.935,-1.381 2.903,-3.732 2.903,-7.051 0,-3.316 -0.969,-5.734 -2.903,-7.256 -1.798,-1.382 -4.841,-2.074 -9.125,-2.074 l -17.21,0 0,18.662 z"
           id="path4619" />
      </g>
      <g
         transform="translate(9.6188857,10.487043)"
         id="текст">
        <path
           style="fill:#424242"
           d="m 34.196,391.547 c -2.105,0 -3.695,0.654 -4.86,2.002 -1.132,1.313 -1.706,3.191 -1.706,5.582 0,2.504 0.593,4.441 1.76,5.754 1.17,1.354 2.761,2.008 4.867,2.008 1.731,0 3.179,-0.422 4.301,-1.256 0.94,-0.668 1.612,-1.564 2.046,-2.73 l -2.162,0 c -0.334,0 -0.588,0.061 -0.735,0.172 -0.214,0.164 -0.264,0.238 -0.266,0.24 l -0.045,0.139 -0.079,0.049 -0.329,0.328 c -0.151,0.152 -0.32,0.264 -0.503,0.334 -0.56,0.313 -1.228,0.473 -1.988,0.473 -1.226,0 -2.168,-0.398 -2.804,-1.182 -0.631,-0.674 -0.988,-1.732 -1.032,-3.113 l -0.021,-0.627 10.423,0 0,-0.469 c 0,-2.469 -0.595,-4.406 -1.766,-5.762 -1.194,-1.303 -2.866,-1.942 -5.101,-1.942 z m -3.56,6.695 0.024,-0.631 c 0.046,-1.189 0.407,-2.131 1.074,-2.797 0.674,-0.672 1.542,-1.016 2.582,-1.016 1.127,0 2.021,0.348 2.657,1.031 0.58,0.629 0.906,1.531 0.998,2.76 l 0.049,0.652 -7.384,0 z"
           id="path4622" />
        <path
           style="fill:#424242"
           d="m 66.471,392.83 c -1.371,-0.852 -2.893,-1.283 -4.522,-1.283 -0.801,0.037 -1.612,0.162 -2.383,0.369 -0.723,0.193 -1.355,0.521 -1.882,0.979 l -0.391,0.338 -0.396,-0.332 c -0.64,-0.531 -1.358,-0.893 -2.139,-1.07 -0.831,-0.188 -1.691,-0.283 -2.555,-0.283 -1.57,0.074 -3.048,0.545 -4.363,1.396 -1.224,0.795 -1.845,2.453 -1.845,4.932 l 0,8.719 2.97,0 0,-9.555 c 0,-1.148 0.359,-2.014 1.069,-2.572 0.665,-0.521 1.435,-0.787 2.288,-0.787 0.85,0 1.627,0.264 2.311,0.781 0.734,0.559 1.107,1.426 1.107,2.578 l 0,9.555 2.91,0 0,-9.555 c 0,-1.154 0.372,-2.021 1.106,-2.578 0.683,-0.518 1.46,-0.781 2.311,-0.781 0.849,0 1.627,0.264 2.31,0.781 0.736,0.559 1.107,1.426 1.107,2.578 l 0,8.129 c 0,0.436 0.128,0.773 0.39,1.035 0.263,0.262 0.601,0.391 1.036,0.391 l 1.484,0 0,-8.719 c 0.002,-2.554 -0.646,-4.251 -1.923,-5.046 z"
           id="path4624" />
        <path
           style="fill:#424242"
           d="m 83.778,392.076 c -0.943,-0.352 -1.889,-0.529 -2.807,-0.529 -1.789,0 -3.471,0.482 -4.999,1.434 -1.457,0.904 -2.165,2.604 -2.165,5.193 l 0,14.279 1.425,0 c 0.394,0 0.723,-0.139 1.006,-0.422 0.282,-0.281 0.42,-0.611 0.42,-1.004 l 0,-7.154 c 0,0 0.614,0.834 0.851,1.115 0.549,0.65 1.248,1.084 1.941,1.43 0.66,0.313 1.458,0.475 2.359,0.475 1.692,0 3.042,-0.668 4.126,-2.041 1.102,-1.432 1.663,-3.359 1.663,-5.721 0,-2.283 -0.562,-4.17 -1.668,-5.609 -0.51,-0.612 -1.24,-1.104 -2.152,-1.446 z m -0.099,10.994 c -0.716,1.002 -1.707,1.51 -2.945,1.51 -1.318,0 -2.35,-0.508 -3.065,-1.51 -0.664,-0.84 -1.01,-2.113 -1.01,-3.76 0,-1.787 0.313,-3.076 0.956,-3.949 0.71,-0.994 1.721,-1.502 2.999,-1.502 1.318,0 2.35,0.508 3.065,1.51 0.67,0.939 1.01,2.264 1.01,3.941 -10e-4,1.555 -0.34,2.821 -1.01,3.76 z"
           id="path4626" />
        <path
           style="fill:#424242"
           d="m 101.686,391.982 c -0.815,-0.295 -1.73,-0.449 -2.706,-0.449 -0.453,0 -0.93,0.033 -1.414,0.1 -1.496,0.199 -2.684,0.826 -3.627,1.916 -0.578,0.65 -1.006,1.475 -1.279,2.457 -0.282,1.016 -0.426,2.047 -0.426,3.064 0,1.25 0.172,2.469 0.513,3.625 0.323,1.094 0.863,1.973 1.606,2.609 0.726,0.652 1.71,1.117 2.936,1.393 1.232,0.275 2.47,0.248 3.684,-0.082 1.367,-0.297 2.441,-1.021 3.315,-2.223 0.392,-0.57 0.726,-1.297 0.987,-2.152 0.259,-0.855 0.391,-1.902 0.391,-3.109 0,-1.648 -0.318,-3.104 -0.949,-4.326 -0.661,-1.358 -1.652,-2.278 -3.031,-2.823 z m 0.25,11.012 c -0.557,0.836 -1.224,1.371 -1.979,1.592 -0.333,0.096 -0.668,0.146 -0.998,0.146 -0.404,0 -0.811,-0.074 -1.204,-0.219 -0.716,-0.262 -1.218,-0.594 -1.532,-1.014 -0.673,-0.805 -1.051,-2.166 -1.138,-4.135 -0.087,-1.969 0.349,-3.494 1.294,-4.531 0.373,-0.373 0.887,-0.648 1.59,-0.859 0.714,-0.215 1.447,-0.203 2.16,0.035 0.73,0.244 1.37,0.791 1.904,1.625 0.527,0.826 0.783,1.988 0.783,3.555 -0.045,1.743 -0.333,2.983 -0.88,3.805 z"
           id="path4628" />
        <path
           style="fill:#424242"
           d="m 128.038,392.881 -2.211,9.555 -1.188,-0.021 -2.056,-10.508 -3.25,0 -2.172,10.516 -1.187,0.012 -2.403,-10.527 -2.784,0 4.031,14.688 3.23,0 2.349,-10.881 1.187,0 2.349,10.881 3.231,0 4.03,-14.688 -1.834,0 c -0.756,-0.002 -1.151,0.289 -1.322,0.973 z"
           id="path4630" />
        <path
           style="fill:#424242"
           d="m 142.944,391.547 c -2.105,0 -3.695,0.654 -4.861,2.002 -1.131,1.313 -1.705,3.191 -1.705,5.582 0,2.504 0.592,4.441 1.76,5.754 1.17,1.354 2.761,2.008 4.867,2.008 1.73,0 3.178,-0.422 4.301,-1.256 0.94,-0.668 1.612,-1.564 2.046,-2.73 l -2.162,0 c -0.334,0 -0.589,0.061 -0.736,0.172 -0.213,0.164 -0.263,0.238 -0.265,0.24 l -0.046,0.139 -0.078,0.049 -0.329,0.328 c -0.15,0.152 -0.32,0.264 -0.503,0.334 -0.56,0.313 -1.229,0.473 -1.989,0.473 -1.225,0 -2.168,-0.398 -2.803,-1.182 -0.631,-0.674 -0.988,-1.732 -1.032,-3.113 l -0.021,-0.627 10.423,0 0,-0.469 c 0,-2.469 -0.595,-4.406 -1.766,-5.762 -1.194,-1.303 -2.866,-1.942 -5.101,-1.942 z m -3.56,6.695 0.024,-0.631 c 0.046,-1.189 0.407,-2.131 1.075,-2.797 0.673,-0.672 1.541,-1.016 2.581,-1.016 1.127,0 2.021,0.348 2.656,1.031 0.581,0.629 0.907,1.531 0.999,2.76 l 0.049,0.652 -7.384,0 z"
           id="path4632" />
        <path
           style="fill:#424242"
           d="m 157.084,393.51 c -0.713,0.568 -1.286,1.344 -1.702,2.305 -0.424,0.975 -0.638,2.211 -0.638,3.674 l 0,7.105 2.97,0 0,-7.582 c 0,-1.359 0.342,-2.389 1.016,-3.061 0.672,-0.674 1.682,-1.016 2.999,-1.016 l 0.769,0 0,-3.029 c -1.012,0 -2.011,0.135 -2.969,0.396 -0.935,0.257 -1.757,0.663 -2.445,1.208 z"
           id="path4634" />
        <path
           style="fill:#424242"
           d="m 169.095,387.242 -1.545,0 0,2.074 2.97,0 0,-0.648 c 0,-0.398 -0.134,-0.719 -0.421,-1.006 -0.286,-0.285 -0.606,-0.42 -1.004,-0.42 z"
           id="path4636" />
        <path
           style="fill:#424242"
           d="m 169.095,391.906 -1.545,0 0,14.688 2.97,0 0,-13.262 c 0,-0.395 -0.138,-0.723 -0.421,-1.006 -0.286,-0.287 -0.606,-0.42 -1.004,-0.42 z"
           id="path4638" />
        <path
           style="fill:#424242"
           d="m 185.705,392.83 c -1.371,-0.852 -2.893,-1.283 -4.522,-1.283 -1.57,0.074 -3.047,0.545 -4.363,1.396 -1.224,0.795 -1.844,2.453 -1.844,4.932 l 0,8.719 2.969,0 0,-9.555 c 0,-1.148 0.359,-2.014 1.069,-2.572 0.665,-0.521 1.435,-0.787 2.288,-0.787 0.85,0 1.627,0.264 2.311,0.781 0.735,0.559 1.107,1.426 1.107,2.578 l 0,8.129 c 0,0.436 0.127,0.773 0.39,1.035 0.263,0.262 0.601,0.391 1.036,0.391 l 1.484,0 0,-8.719 c 0,-2.553 -0.648,-4.25 -1.925,-5.045 z"
           id="path4640" />
        <path
           style="fill:#424242"
           d="m 203.767,393.006 c -1.529,-0.969 -3.21,-1.459 -4.995,-1.459 -2.328,0 -3.958,0.672 -4.982,2.057 -1.051,1.42 -1.584,3.32 -1.584,5.646 0,1.982 0.398,3.59 1.185,4.775 0.783,1.186 1.725,2.004 2.797,2.432 1.076,0.432 2.166,0.523 3.257,0.271 1.063,-0.244 1.802,-0.617 2.707,-1.512 0.313,-0.309 0.935,-1.191 0.935,-1.191 l 0,2.219 c -0.089,1.439 -0.448,2.525 -1.068,3.262 -0.625,0.74 -1.342,1.201 -2.133,1.367 -0.783,0.166 -1.578,0.072 -2.35,-0.279 -0.651,-0.297 -1.17,-0.709 -1.545,-1.23 l -3.216,0 c 0.928,2.641 2.897,3.926 5.998,3.926 1.788,0 3.47,-0.482 5,-1.432 1.456,-0.906 2.164,-2.605 2.164,-5.195 l 0,-8.43 c -0.001,-2.59 -0.711,-4.299 -2.17,-5.227 z m -0.809,7.869 c -0.18,1.055 -0.477,1.82 -0.906,2.346 -0.686,0.939 -1.697,1.43 -2.988,1.43 l -0.001,0 c -0.351,0 -0.728,-0.037 -1.12,-0.111 -1.916,-0.357 -2.887,-2.098 -2.887,-5.17 0,-1.361 0.261,-2.596 0.776,-3.67 0.403,-0.84 1.302,-1.84 3.298,-1.84 1.198,0 2.127,0.447 2.765,1.328 0.572,0.793 0.94,1.707 1.095,2.715 0.148,0.976 0.137,1.976 -0.032,2.972 z"
           id="path4642" />
        <path
           style="fill:#424242"
           d="m 224.254,388.668 c 0,-0.398 -0.134,-0.719 -0.421,-1.006 -0.281,-0.281 -0.592,-0.42 -0.945,-0.42 l -1.544,0 0,16.969 c 0,1.939 0.931,2.262 1.741,2.324 1.276,0.1 2.494,0.129 3.619,0.086 l 0,-1.922 -0.647,0 c -1.129,0 -1.803,-0.605 -1.803,-1.623 l 0,-9.457 1.026,0 c 0.405,0 0.729,-0.127 1.016,-0.4 0.274,-0.262 0.408,-0.596 0.408,-1.023 l 0,-0.23 -2.45,0 0,-3.298 z"
           id="path4644" />
        <path
           style="fill:#424242"
           d="m 241.372,391.916 c -1.049,-0.42 -2.195,-0.494 -3.383,-0.207 -1.162,0.283 -1.914,0.639 -2.768,1.533 -0.232,0.244 -1.032,1.215 -1.032,1.215 l 0,-5.789 c 0,-0.398 -0.134,-0.719 -0.421,-1.006 -0.286,-0.285 -0.605,-0.42 -1.004,-0.42 l -1.426,0 0,19.352 2.851,0 0,-7.582 c 0,-1.523 0.342,-2.754 1.019,-3.654 0.716,-0.955 1.744,-1.438 3.057,-1.438 1.238,0 2.229,0.508 2.945,1.508 0.41,0.594 0.674,1.184 0.789,1.76 0.106,0.541 0.161,1.133 0.161,1.764 l 0,7.643 2.79,0 0,-8.66 c 0,-1.691 -0.342,-3.02 -1.02,-3.945 -0.687,-0.943 -1.548,-1.64 -2.558,-2.074 z"
           id="path4646" />
        <path
           style="fill:#424242"
           d="m 382.81,391.916 c -1.049,-0.42 -2.195,-0.494 -3.382,-0.207 -1.162,0.283 -1.914,0.639 -2.767,1.533 -0.234,0.244 -1.033,1.215 -1.033,1.215 l 0,-5.789 c 0,-0.398 -0.135,-0.719 -0.421,-1.006 -0.286,-0.285 -0.606,-0.42 -1.005,-0.42 l -1.425,0 0,19.352 2.851,0 0,-7.582 c 0,-1.523 0.342,-2.754 1.018,-3.654 0.717,-0.955 1.744,-1.438 3.057,-1.438 1.239,0 2.23,0.508 2.946,1.508 0.409,0.594 0.673,1.184 0.789,1.76 0.106,0.541 0.161,1.133 0.161,1.764 l 0,7.643 2.791,0 0,-8.66 c 0,-1.691 -0.344,-3.02 -1.02,-3.945 -0.688,-0.943 -1.551,-1.64 -2.56,-2.074 z"
           id="path4648" />
        <path
           style="fill:#424242"
           d="m 256.152,391.547 c -2.106,0 -3.696,0.654 -4.861,2.002 -1.132,1.313 -1.704,3.191 -1.704,5.582 0,2.506 0.592,4.441 1.758,5.754 1.17,1.354 2.761,2.008 4.868,2.008 1.73,0 3.178,-0.422 4.301,-1.256 0.94,-0.668 1.612,-1.564 2.046,-2.73 l -2.162,0 c -0.334,0 -0.588,0.061 -0.736,0.172 -0.213,0.166 -0.264,0.24 -0.266,0.242 l -0.045,0.137 -0.197,0.168 -0.212,0.211 c -0.149,0.15 -0.317,0.262 -0.501,0.332 -0.56,0.313 -1.229,0.473 -1.988,0.473 -1.225,0 -2.168,-0.398 -2.805,-1.182 -0.631,-0.674 -0.988,-1.734 -1.031,-3.115 l -0.02,-0.625 10.421,0 0,-0.469 c 0,-2.469 -0.594,-4.406 -1.765,-5.762 -1.195,-1.303 -2.867,-1.942 -5.101,-1.942 z m -3.559,6.695 0.023,-0.631 c 0.045,-1.188 0.405,-2.129 1.074,-2.797 0.674,-0.672 1.541,-1.016 2.582,-1.016 1.127,0 2.021,0.348 2.656,1.031 0.573,0.621 0.907,1.549 0.998,2.76 l 0.049,0.652 -7.382,0 z"
           id="path4650" />
        <path
           style="fill:#424242"
           d="m 285.568,398.063 c -0.181,-0.006 -0.368,-0.029 -0.56,-0.074 -0.194,-0.043 -0.426,-0.107 -0.689,-0.195 -1.602,-0.336 -3.521,-0.906 -3.521,-2.189 0,-0.684 0.279,-1.23 0.809,-1.582 0.523,-0.316 1.212,-0.461 2.131,-0.461 0.969,0 1.754,0.223 2.338,0.66 l 0.066,0.059 0.57,0.598 c 0.287,0.488 0.672,0.717 1.21,0.717 l 1.897,0 c -0.183,-1.139 -0.702,-2.064 -1.577,-2.818 -1.089,-0.807 -2.636,-1.229 -4.565,-1.229 -1.766,0 -3.211,0.42 -4.293,1.25 -0.998,0.861 -1.496,1.941 -1.496,3.283 0,1.025 0.325,1.816 0.994,2.42 0.462,0.459 1.504,1.105 3.984,1.713 0.374,0.123 0.885,0.236 1.568,0.35 0.768,0.164 3.02,0.646 3.02,2.215 0,0.486 -0.178,1.17 -1.02,1.66 -0.623,0.336 -1.344,0.5 -2.159,0.5 -1.116,0 -2.033,-0.234 -2.729,-0.699 -0.58,-0.412 -0.943,-0.979 -1.094,-1.691 l -2.91,0 c 0.083,1.357 0.572,2.375 1.49,3.102 1.008,0.828 2.587,1.244 4.705,1.244 2.248,0 3.938,-0.402 5.021,-1.197 1.118,-0.84 1.664,-2.01 1.664,-3.576 0,-1.031 -0.309,-1.826 -0.945,-2.43 -0.691,-0.588 -2.013,-1.142 -3.909,-1.63 z"
           id="path4652" />
        <path
           style="fill:#424242"
           d="m 315.831,392.83 c -1.371,-0.852 -2.892,-1.283 -4.522,-1.283 -0.802,0.037 -1.612,0.162 -2.383,0.369 -0.722,0.193 -1.356,0.521 -1.882,0.979 l -0.391,0.338 -0.396,-0.332 c -0.639,-0.531 -1.357,-0.893 -2.137,-1.07 -0.832,-0.188 -1.691,-0.283 -2.556,-0.283 -1.57,0.074 -3.048,0.545 -4.362,1.396 -1.225,0.795 -1.846,2.453 -1.846,4.932 l 0,8.719 2.971,0 0,-9.555 c 0,-1.15 0.36,-2.016 1.069,-2.572 1.326,-1.041 3.228,-1.045 4.598,-0.006 0.735,0.559 1.107,1.426 1.107,2.578 l 0,9.555 2.91,0 0,-9.555 c 0,-1.154 0.372,-2.021 1.106,-2.578 0.684,-0.518 1.461,-0.781 2.311,-0.781 0.85,0 1.627,0.264 2.311,0.781 0.734,0.559 1.107,1.426 1.107,2.578 l 0,8.129 c 0,0.436 0.127,0.773 0.389,1.035 0.264,0.262 0.602,0.391 1.036,0.391 l 1.485,0 0,-8.719 c 0.001,-2.554 -0.648,-4.251 -1.925,-5.046 z"
           id="path4654" />
        <path
           style="fill:#424242"
           d="m 333.575,392.574 c -1.006,-0.68 -2.582,-1.027 -4.678,-1.027 -1.834,0 -3.251,0.414 -4.209,1.23 -0.662,0.553 -1.099,1.203 -1.324,1.979 l 2.905,0 c 0.268,-0.4 0.638,-0.689 1.104,-0.859 0.968,-0.352 2.168,-0.389 3.575,0.016 0.881,0.256 1.366,0.879 1.366,1.75 0,1.146 -1.063,1.871 -3.156,2.156 -0.351,0.039 -0.65,0.086 -0.912,0.143 -0.301,0.064 -0.561,0.098 -0.793,0.102 -1.391,0.225 -2.543,0.668 -3.428,1.318 -0.818,0.602 -1.217,1.613 -1.217,3.098 0,1.602 0.445,2.701 1.362,3.363 0.979,0.707 2.095,1.051 3.411,1.051 0.685,0 1.498,-0.049 2.416,-0.146 0.857,-0.092 1.68,-0.34 2.441,-0.74 0.705,-0.352 1.319,-0.934 1.835,-1.734 0.511,-0.795 0.771,-1.939 0.771,-3.406 l 0,-5.441 c 0.002,-1.238 -0.481,-2.167 -1.469,-2.853 z m -1.201,8.11 c 0,1.279 -0.381,2.309 -1.134,3.061 -0.753,0.752 -1.783,1.135 -3.06,1.135 -0.829,0 -1.488,-0.213 -1.959,-0.633 -0.501,-0.498 -0.741,-1.125 -0.741,-1.887 0,-0.555 0.173,-1.107 0.513,-1.643 l 0.084,-0.104 c 0.397,-0.396 0.992,-0.701 1.82,-0.934 l 1.41,-0.307 c 0.932,-0.225 1.672,-0.469 2.188,-0.727 l 0.879,-0.441 0,2.48 z"
           id="path4656" />
        <path
           style="fill:#424242"
           d="m 342.26,393.508 c -0.712,0.57 -1.286,1.346 -1.702,2.307 -0.424,0.973 -0.638,2.209 -0.638,3.674 l 0,7.105 2.971,0 0,-7.582 c 0,-1.359 0.341,-2.389 1.015,-3.061 0.673,-0.674 1.683,-1.016 3,-1.016 l 0.768,0 0,-3.029 c -1.012,0 -2.011,0.135 -2.969,0.396 -0.934,0.257 -1.757,0.663 -2.445,1.206 z"
           id="path4658" />
        <path
           style="fill:#424242"
           d="m 355.755,388.668 c 0,-0.398 -0.133,-0.719 -0.42,-1.006 -0.281,-0.281 -0.592,-0.42 -0.946,-0.42 l -1.544,0 0,16.969 c 0,1.939 0.931,2.262 1.742,2.324 1.276,0.1 2.494,0.129 3.619,0.086 l 0,-1.922 -0.648,0 c -1.128,0 -1.803,-0.605 -1.803,-1.623 l 0,-9.457 1.027,0 c 0.404,0 0.729,-0.127 1.016,-0.4 0.273,-0.262 0.408,-0.596 0.408,-1.023 l 0,-0.23 -2.451,0 0,-3.298 z"
           id="path4660" />
        <path
           style="fill:#424242"
           d="m 400.476,391.982 c -0.815,-0.295 -1.731,-0.449 -2.706,-0.449 -0.454,0 -0.93,0.033 -1.414,0.1 -1.496,0.199 -2.683,0.826 -3.628,1.916 -0.578,0.65 -1.006,1.475 -1.278,2.457 -0.282,1.014 -0.425,2.045 -0.425,3.064 0,1.254 0.172,2.471 0.512,3.623 0.322,1.096 0.863,1.975 1.606,2.611 0.724,0.652 1.71,1.117 2.937,1.393 1.23,0.275 2.469,0.248 3.683,-0.082 1.368,-0.297 2.442,-1.021 3.316,-2.223 0.391,-0.568 0.724,-1.297 0.985,-2.152 0.26,-0.855 0.392,-1.902 0.392,-3.109 0,-1.648 -0.319,-3.104 -0.948,-4.326 -0.661,-1.358 -1.652,-2.276 -3.032,-2.823 z m 0.251,11.012 c -0.559,0.838 -1.224,1.373 -1.98,1.592 -0.332,0.096 -0.668,0.146 -0.997,0.146 0,0 0,0 -0.002,0 -0.402,0 -0.808,-0.074 -1.203,-0.219 -0.717,-0.262 -1.219,-0.594 -1.533,-1.014 -0.672,-0.807 -1.051,-2.168 -1.137,-4.135 -0.088,-1.969 0.348,-3.494 1.295,-4.531 0.371,-0.373 0.887,-0.648 1.589,-0.859 0.713,-0.215 1.447,-0.203 2.16,0.035 0.729,0.244 1.37,0.791 1.903,1.625 0.527,0.824 0.783,1.988 0.783,3.555 -0.043,1.745 -0.331,2.983 -0.878,3.805 z"
           id="path4662" />
        <path
           style="fill:#424242"
           d="m 429.862,392.83 c -1.369,-0.852 -2.891,-1.283 -4.521,-1.283 -0.801,0.037 -1.611,0.162 -2.382,0.369 -0.724,0.193 -1.356,0.521 -1.882,0.979 l -0.393,0.338 -0.395,-0.332 c -0.64,-0.531 -1.357,-0.893 -2.137,-1.07 -0.833,-0.188 -1.691,-0.283 -2.556,-0.283 -1.571,0.074 -3.048,0.545 -4.364,1.396 -1.224,0.795 -1.844,2.453 -1.844,4.932 l 0,8.719 2.969,0 0,-9.555 c 0,-1.15 0.361,-2.016 1.07,-2.572 1.326,-1.041 3.229,-1.045 4.6,-0.006 0.734,0.559 1.105,1.426 1.105,2.578 l 0,9.555 2.91,0 0,-9.555 c 0,-1.154 0.372,-2.021 1.107,-2.578 0.682,-0.518 1.461,-0.781 2.311,-0.781 0.85,0 1.627,0.264 2.31,0.781 0.735,0.559 1.107,1.426 1.107,2.578 l 0,8.129 c 0,0.436 0.128,0.773 0.39,1.035 0.262,0.262 0.6,0.391 1.035,0.391 l 1.486,0 0,-8.719 c 0.002,-2.554 -0.646,-4.251 -1.926,-5.046 z"
           id="path4664" />
        <path
           style="fill:#424242"
           d="m 443.408,391.547 c -2.106,0 -3.696,0.654 -4.861,2.002 -1.132,1.313 -1.704,3.191 -1.704,5.582 0,2.506 0.592,4.441 1.76,5.754 1.168,1.354 2.76,2.008 4.866,2.008 1.729,0 3.178,-0.422 4.301,-1.256 0.94,-0.668 1.612,-1.564 2.046,-2.73 l -2.163,0 c -0.333,0 -0.588,0.061 -0.735,0.172 -0.212,0.166 -0.263,0.24 -0.266,0.242 l -0.044,0.137 -0.198,0.168 -0.213,0.211 c -0.148,0.15 -0.316,0.262 -0.498,0.332 -0.561,0.313 -1.23,0.473 -1.991,0.473 -1.224,0 -2.167,-0.398 -2.804,-1.182 -0.631,-0.674 -0.988,-1.734 -1.031,-3.115 l -0.02,-0.625 10.422,0 0,-0.469 c 0,-2.469 -0.595,-4.406 -1.766,-5.762 -1.196,-1.303 -2.867,-1.942 -5.101,-1.942 z m -3.559,6.695 0.023,-0.631 c 0.045,-1.188 0.405,-2.129 1.074,-2.797 0.672,-0.672 1.541,-1.016 2.582,-1.016 1.127,0 2.02,0.348 2.656,1.031 0.573,0.621 0.908,1.549 0.998,2.76 l 0.049,0.652 -7.382,0 z"
           id="path4666" />
      </g>
      <g
         transform="translate(9.6188857,10.487043)"
         id="g4668">
        <defs
           id="defs4670">
          <path
             id="SVGID_1_"
             d="m 36.019,357.242 c -2.843,-2.438 -4.873,-5.717 -6.092,-9.849 -1.219,-4.128 -1.828,-8.427 -1.828,-12.895 0,-3.655 0.508,-7.31 1.523,-10.965 1.016,-3.657 2.605,-6.703 4.772,-9.139 3.519,-4.062 8.053,-6.463 13.605,-7.208 5.55,-0.743 10.56,-0.306 15.026,1.319 5.144,2.03 8.936,5.553 11.372,10.561 2.302,4.468 3.452,9.68 3.452,15.635 0,4.336 -0.476,8.056 -1.421,11.17 -0.949,3.115 -2.167,5.754 -3.655,7.92 -3.25,4.467 -7.381,7.244 -12.388,8.324 -4.467,1.219 -8.97,1.322 -13.505,0.305 -4.534,-1.014 -8.154,-2.74 -10.861,-5.178 z m 9.748,-35.739 c -2.844,3.116 -4.133,7.75 -3.859,13.911 0.271,6.162 1.423,10.457 3.453,12.894 0.813,1.085 2.233,1.999 4.264,2.742 2.031,0.744 4.094,0.813 6.193,0.201 2.098,-0.608 3.96,-2.131 5.585,-4.569 1.624,-2.435 2.503,-6.36 2.641,-11.777 0,-4.873 -0.781,-8.527 -2.336,-10.963 -1.558,-2.438 -3.351,-3.993 -5.382,-4.673 -2.029,-0.676 -4.062,-0.709 -6.092,-0.101 -2.032,0.609 -3.522,1.389 -4.467,2.335 z m 52.196,53.468 c 0,1.895 -0.679,3.52 -2.03,4.873 -1.356,1.352 -2.979,2.031 -4.874,2.031 l -6.904,0 0,-50.565 c 0,-9.472 2.772,-15.941 8.325,-19.392 5.551,-3.452 11.575,-5.18 18.073,-5.18 3.383,0 6.804,0.645 10.255,1.932 3.452,1.287 6.194,3.147 8.225,5.583 4.063,5.28 6.094,12.052 6.094,20.306 0,8.53 -2.031,15.433 -6.094,20.712 -4.062,5.148 -9.274,7.719 -15.637,7.719 -3.386,0 -6.365,-0.607 -8.935,-1.828 -2.71,-1.352 -4.873,-3.451 -6.498,-6.295 l 0,20.104 z m 23.149,-39.802 c 0,-5.28 -1.015,-9.342 -3.046,-12.184 -2.031,-2.843 -4.943,-4.264 -8.731,-4.264 -3.655,0 -6.499,1.421 -8.529,4.264 -1.897,2.572 -2.843,6.634 -2.843,12.184 0,5.146 1.015,9.005 3.046,11.575 2.031,2.842 4.941,4.265 8.732,4.265 3.519,0 6.294,-1.423 8.325,-4.265 2.032,-2.842 3.046,-6.702 3.046,-11.575 z m 58.814,10.153 10.154,0 c -1.489,5.688 -4.333,10.022 -8.528,12.997 -4.196,3.117 -9.478,4.672 -15.84,4.672 -7.716,0 -13.741,-2.504 -18.072,-7.516 -4.334,-4.874 -6.498,-11.843 -6.498,-20.916 0,-8.661 2.097,-15.433 6.295,-20.306 4.33,-5.006 10.356,-7.515 18.072,-7.515 8.125,0 14.417,2.438 18.886,7.312 4.331,5.009 6.498,11.98 6.498,20.916 0,0.543 0,1.016 0,1.422 0,0.404 0,0.678 0,0.812 0,0.679 -0.069,1.152 -0.203,1.422 l -35.131,0 c 0.133,4.196 1.149,7.31 3.046,9.341 1.758,2.168 4.397,3.249 7.92,3.249 2.301,0 4.264,-0.472 5.89,-1.422 0.406,-0.132 0.777,-0.37 1.118,-0.709 0.336,-0.336 0.709,-0.711 1.115,-1.117 0.133,-0.405 0.642,-0.945 1.522,-1.625 0.88,-0.676 2.134,-1.017 3.756,-1.017 z m -24.367,-15.84 20.712,0 c -0.271,-3.654 -1.217,-6.359 -2.84,-8.121 -1.762,-1.894 -4.266,-2.843 -7.516,-2.843 -2.979,0 -5.415,0.949 -7.311,2.843 -1.896,1.896 -2.913,4.604 -3.045,8.121 z m 88.834,32.493 -7.108,0 c -2.031,0 -3.689,-0.641 -4.975,-1.93 -1.289,-1.285 -1.93,-2.943 -1.93,-4.975 l 0,-27.618 c 0,-3.249 -0.983,-5.615 -2.944,-7.107 -1.963,-1.49 -4.162,-2.233 -6.601,-2.233 -2.436,0 -4.604,0.743 -6.497,2.233 -1.896,1.493 -2.844,3.858 -2.844,7.107 l 0,34.522 -14.217,0 0,-31.68 c 0,-9.204 2.405,-15.361 7.212,-18.477 4.804,-3.114 10.119,-4.805 15.941,-5.079 5.956,0 11.439,1.56 16.448,4.673 5.007,3.115 7.514,9.41 7.514,18.883 l 0,31.681 z m 13.803,-0.414 0,-63.867 c 0,-2.073 0.726,-3.836 2.176,-5.287 1.453,-1.454 3.216,-2.178 5.288,-2.178 l 7.259,0 0,26.543 29.445,0 0,-26.543 14.929,0 0,71.332 -14.929,0 0,-31.727 -29.445,0 0,31.727 -14.723,0 z m 92.69,-71.332 11.611,0 25.92,71.332 -15.552,0 -4.77,-14.722 -27.785,0 -4.562,14.722 -15.552,0 23.638,-66.563 c 1.245,-3.179 3.595,-4.769 7.052,-4.769 z m 3.316,14.308 -9.951,30.273 19.906,0 -9.955,-30.273 z m 37.533,57.024 0,-63.867 c 0,-2.073 0.724,-3.836 2.176,-5.287 1.452,-1.454 3.217,-2.178 5.287,-2.178 l 26.129,0 c 7.325,0 12.924,1.522 16.797,4.562 3.867,3.316 5.806,7.812 5.806,13.478 0,3.596 -0.763,6.636 -2.282,9.125 -1.521,2.352 -3.664,4.216 -6.428,5.599 3.594,1.522 6.357,3.664 8.295,6.428 1.795,2.626 2.695,6.085 2.695,10.367 0,6.914 -2.213,12.306 -6.635,16.173 -4.563,3.732 -10.99,5.6 -19.286,5.6 l -32.554,0 z m 14.1,-43.753 16.796,0 c 3.595,0 6.222,-0.621 7.88,-1.865 1.659,-1.245 2.488,-3.18 2.488,-5.808 0,-2.623 -0.829,-4.561 -2.488,-5.804 -1.384,-1.104 -4.078,-1.659 -8.087,-1.659 l -16.589,0 0,15.136 z m 0,30.897 17.418,0 c 3.869,0 6.844,-0.758 8.917,-2.281 1.935,-1.381 2.903,-3.732 2.903,-7.051 0,-3.316 -0.969,-5.734 -2.903,-7.256 -1.798,-1.382 -4.841,-2.074 -9.125,-2.074 l -17.21,0 0,18.662 z" />
        </defs>
        <clipPath
           id="clipPath5923">
          <use
             height="100%"
             width="100%"
             y="0"
             x="0"
             style="overflow:visible"
             xlink:href="#SVGID_1_"
             overflow="visible"
             id="use5925" />
        </clipPath>
        <linearGradient
           id="linearGradient5927"
           gradientUnits="userSpaceOnUse"
           x1="251.1436"
           y1="339.49509"
           x2="250.42239"
           y2="302.32129">
          <stop
             offset="0"
             style="stop-color:#FFFFFF"
             id="stop5929" />
          <stop
             offset="1"
             style="stop-color:#FFFFFF;stop-opacity:0"
             id="stop5931" />
        </linearGradient>
        <path
           style="opacity:0.56999966;fill:url(#SVGID_3_)"
           clip-path="url(#SVGID_2_)"
           d="m 2.192,357.662 c 0,0 118.615,-48.992 218.643,-27 114.305,25.131 233.857,-0.992 271.357,-34.333 37.5,-33.34 0.333,-16.333 -13.667,-15.833 -14,0.5 -257.69,3 -257.69,3 l -229.81,-26.5 11.167,100.666 z"
           id="path4681" />
        <linearGradient
           id="linearGradient5934"
           gradientUnits="userSpaceOnUse"
           x1="251.1416"
           y1="341.64551"
           x2="250.0529"
           y2="285.52271">
          <stop
             offset="0"
             style="stop-color:#FFFFFF"
             id="stop5936" />
          <stop
             offset="1"
             style="stop-color:#FFFFFF;stop-opacity:0"
             id="stop5938" />
        </linearGradient>
        <path
           style="opacity:0.73999999;fill:url(#SVGID_4_)"
           clip-path="url(#SVGID_2_)"
           d="m 492.192,296.329 c -37.5,33.34 -157.053,59.464 -271.357,34.333 -100.027,-21.991 -218.643,27 -218.643,27 L -8.734,259.174 -8.975,259.146 2.192,359.813 c 0,0 118.615,-48.991 218.643,-27 114.305,25.13 233.857,-0.993 271.357,-34.333 13.569,-12.064 17.358,-17.534 16.01,-19.581 -1.08,2.952 -5.741,8.3 -16.01,17.43 z"
           id="path4688" />
      </g>
      <g
         transform="translate(9.6188857,10.487043)"
         id="g4690">
        <g
           id="g4692">
          <linearGradient
             id="linearGradient5943"
             gradientUnits="userSpaceOnUse"
             x1="238.3501"
             y1="253.7886"
             x2="238.3501"
             y2="52.049">
            <stop
               offset="0"
               style="stop-color:#666666"
               id="stop5945" />
            <stop
               offset="1"
               style="stop-color:#242424"
               id="stop5947" />
          </linearGradient>
          <path
             style="fill:url(#SVGID_5_)"
             d="M 355.152,157.635 C 355.131,119.866 344.944,90.556 324.874,70.512 300.618,46.288 267.611,41.231 244.2,41.27 l -0.219,0 c -15.972,0.021 -45.701,0.059 -72.278,14.847 -33.284,18.519 -50.161,53.263 -50.161,103.268 0,36.607 10.494,65.327 31.189,85.365 14.581,14.118 41.443,30.517 87.537,30.515 2.118,0 4.282,-0.035 6.483,-0.105 0.651,-0.021 1.146,-0.042 1.47,-0.042 0.001,0 0.003,0 0.004,0 l 0.722,-0.003 -0.089,-24.406 c -0.892,-0.021 -1.479,0.013 -2.897,0.002 -41.513,1.336 -64.36,-12.058 -76.214,-23.535 -15.755,-15.253 -23.743,-38.062 -23.743,-67.791 0,-82.415 49.544,-93.59 98.009,-93.653 l 0.22,0 c 0.061,0 0.12,0 0.181,0 18.775,0 44.909,3.847 63.176,22.089 15.329,15.311 23.103,38.841 23.102,69.94 l -0.002,0.127 0.006,0.183 c 0.005,0.235 0.301,23.691 -15.15,39.46 -9.924,10.128 -24.626,15.264 -43.697,15.264 -25.976,0 -43.48,-4.34 -52.029,-12.9 -8.828,-8.839 -8.81,-22.954 -8.788,-39.298 l 0.002,-2.3 c 0,-18.553 0.085,-27.341 0.152,-31.394 l 25.978,-18.262 26.26,18.459 0,63.407 24.461,0 0,-46.21 14.242,10.01 14.066,-20.012 -79.029,-55.569 -79.029,55.569 14.068,20.012 14.39,-10.116 c -0.014,4.198 -0.021,8.915 -0.021,14.104 l -0.002,2.269 c -0.024,19.031 -0.053,40.601 15.941,56.616 13.679,13.696 35.712,20.076 69.338,20.076 26.033,0 46.691,-7.686 61.402,-22.842 21.878,-22.546 21.957,-53.495 21.901,-56.779 z"
             id="path4699" />
        </g>
        <rect
           style="fill:#e05121"
           x="258.25699"
           y="250.709"
           width="14.608"
           height="24.556"
           id="rect4701" />
        <rect
           style="fill:#e05121"
           x="282.13599"
           y="250.709"
           width="14.609"
           height="24.556"
           id="rect4703" />
        <rect
           style="fill:#e05121"
           x="306.05099"
           y="250.709"
           width="14.608"
           height="24.556"
           id="rect4705" />
      </g>
      <g
         transform="translate(9.6188857,10.487043)"
         id="g4707">
        <defs
           id="defs4709">
          <polygon
             id="SVGID_6_"
             points="177.091,172.432 166.862,166.588 160.681,173.043 155.585,123.1 192.481,90.077 234.678,75.196 287.271,103.531 320.906,130.032 317.645,163.462 323.148,167.54 277.69,200.563 221.021,172.432 " />
        </defs>
        <clipPath
           id="clipPath5956">
          <use
             height="100%"
             width="100%"
             y="0"
             x="0"
             style="overflow:visible"
             xlink:href="#SVGID_6_"
             overflow="visible"
             id="use5958" />
        </clipPath>
        <g
           clip-path="url(#SVGID_7_)"
           id="g4715">
          <path
             style="fill:#e05121"
             d="M 355.152,157.635 C 355.131,119.866 344.944,90.556 324.874,70.512 300.618,46.288 267.611,41.231 244.2,41.27 l -0.219,0 c -15.972,0.021 -45.701,0.059 -72.278,14.847 -33.284,18.519 -50.161,53.263 -50.161,103.268 0,36.607 10.494,65.327 31.189,85.365 14.581,14.118 41.443,30.517 87.537,30.515 2.118,0 4.282,-0.035 6.483,-0.105 0.651,-0.021 1.146,-0.042 1.47,-0.042 0.001,0 0.003,0 0.004,0 l 0.722,-0.003 -0.089,-24.406 c -0.892,-0.021 -1.479,0.013 -2.897,0.002 -41.513,1.336 -64.36,-12.058 -76.214,-23.535 -15.755,-15.253 -23.743,-38.062 -23.743,-67.791 0,-82.415 49.544,-93.59 98.009,-93.653 l 0.22,0 c 0.061,0 0.12,0 0.181,0 18.775,0 44.909,3.847 63.176,22.089 15.329,15.311 23.103,38.841 23.102,69.94 l -0.002,0.127 0.006,0.183 c 0.005,0.235 0.301,23.691 -15.15,39.46 -9.924,10.128 -24.626,15.264 -43.697,15.264 -25.976,0 -43.48,-4.34 -52.029,-12.9 -8.828,-8.839 -8.81,-22.954 -8.788,-39.298 l 0.002,-2.3 c 0,-18.553 0.085,-27.341 0.152,-31.394 l 25.978,-18.262 26.26,18.459 0,63.407 24.461,0 0,-46.21 14.242,10.01 14.066,-20.012 -79.029,-55.569 -79.029,55.569 14.068,20.012 14.39,-10.116 c -0.014,4.198 -0.021,8.915 -0.021,14.104 l -0.002,2.269 c -0.024,19.031 -0.053,40.601 15.941,56.616 13.679,13.696 35.712,20.076 69.338,20.076 26.033,0 46.691,-7.686 61.402,-22.842 21.878,-22.546 21.957,-53.495 21.901,-56.779 z"
             id="path4717" />
          <rect
             style="fill:#e05121"
             x="258.189"
             y="250.709"
             width="14.608"
             height="24.556"
             id="rect4719" />
          <rect
             style="fill:#e05121"
             x="281.69901"
             y="250.709"
             width="14.608"
             height="24.556"
             id="rect4721" />
          <rect
             style="fill:#e05121"
             x="304.66699"
             y="250.709"
             width="14.607"
             height="24.556"
             id="rect4723" />
        </g>
      </g>
      <g
         transform="translate(9.6188857,10.487043)"
         id="g4725">
        <defs
           id="defs4727">
          <path
             id="SVGID_8_"
             d="m 277.69,212.612 c -1.904,0.112 -3.844,0.182 -5.844,0.182 -25.976,0 -43.48,-4.34 -52.029,-12.9 -6.811,-6.819 -8.354,-16.781 -8.695,-28.481 l -24.465,0 c 0.432,16.026 2.837,32.735 15.852,45.767 8.637,8.648 20.61,14.376 36.725,17.426 l 38.457,0 0,-21.994 z" />
        </defs>
        <clipPath
           id="clipPath5968">
          <use
             height="100%"
             width="100%"
             y="0"
             x="0"
             style="overflow:visible"
             xlink:href="#SVGID_8_"
             overflow="visible"
             id="use5970" />
        </clipPath>
        <linearGradient
           id="linearGradient5972"
           gradientUnits="userSpaceOnUse"
           x1="204.44431"
           y1="178.6826"
           x2="258.67099"
           y2="235.52209">
          <stop
             offset="0"
             style="stop-color:#E05121"
             id="stop5974" />
          <stop
             offset="0.3858"
             style="stop-color:#BE572C;stop-opacity:0.6142"
             id="stop5976" />
          <stop
             offset="1"
             style="stop-color:#806240;stop-opacity:0"
             id="stop5978" />
        </linearGradient>
        <rect
           style="fill:url(#SVGID_10_)"
           x="180.52499"
           y="167.32899"
           clip-path="url(#SVGID_9_)"
           width="99"
           height="76.333"
           id="rect4740" />
      </g>
      <rect
         style="opacity:0.28999999;fill:url(#SVGID_11_)"
         x="271.06805"
         y="264.05008"
         width="11.416"
         height="21.702"
         id="rect4747" />
      <rect
         style="opacity:0.28999999;fill:url(#SVGID_12_)"
         x="294.98505"
         y="264.05008"
         width="11.416"
         height="21.702"
         id="rect4754" />
      <rect
         style="opacity:0.28999999;fill:url(#SVGID_13_)"
         x="318.862"
         y="264.05008"
         width="11.416"
         height="21.702"
         id="rect4761" />
      <g
         transform="translate(9.6188857,10.487043)"
         id="g4763">
        <defs
           id="defs4765">
          <path
             id="SVGID_14_"
             d="m 351.652,157.667 0,-0.029 C 351.631,120.833 341.79,92.354 322.401,72.99 299.047,49.667 267.128,44.771 244.463,44.771 l -0.258,0 -0.213,0 c -15.662,0.02 -44.803,0.057 -70.588,14.405 -15.925,8.86 -28.076,21.746 -36.116,38.298 -8.126,16.73 -12.247,37.561 -12.247,61.912 0,35.622 10.135,63.497 30.124,82.851 13.913,13.471 39.972,29.53 85.097,29.53 1.688,0 3.422,-0.023 5.172,-0.068 l -0.064,-17.466 c -1.709,0.048 -3.418,0.073 -5.089,0.073 -39.299,0 -61.372,-13.384 -72.97,-24.613 -16.461,-15.938 -24.808,-39.592 -24.808,-70.306 0,-38.767 10.566,-65.119 32.304,-80.562 20.624,-14.653 47.815,-16.563 69.201,-16.592 l 0.212,0 0.192,0 c 19.391,0 46.521,4.01 65.648,23.112 16.012,15.993 24.13,40.357 24.129,72.417 l 0,0.021 0,0.02 -0.001,0.05 0.003,0.107 0.002,0.023 0,0.023 c 0.001,0.063 0.096,6.437 -1.873,14.774 -2.57,10.885 -7.507,20.291 -14.277,27.201 -10.605,10.825 -26.149,16.314 -46.197,16.314 -13.211,0 -24.445,-1.125 -33.393,-3.343 -9.299,-2.306 -16.402,-5.866 -21.113,-10.583 -9.854,-9.867 -9.834,-24.654 -9.812,-41.776 l 0.002,-2.299 c 0,-18.395 0.083,-27.255 0.152,-31.448 l 0.03,-1.781 1.457,-1.024 25.979,-18.262 2.012,-1.415 2.014,1.415 26.259,18.459 1.487,1.045 0,1.818 0,59.907 17.461,0 0,-42.71 0,-6.738 5.514,3.875 11.378,7.998 10.042,-14.286 -74.154,-52.141 -74.153,52.141 10.042,14.285 11.527,-8.103 5.533,-3.891 -0.021,6.765 c -0.014,4.171 -0.021,8.913 -0.021,14.094 l -0.002,2.272 c -0.012,9.495 -0.025,19.312 1.894,28.737 2.126,10.446 6.386,18.755 13.024,25.401 12.979,12.996 34.226,19.049 66.861,19.049 25.05,0 44.863,-7.328 58.891,-21.78 20.863,-21.498 20.972,-50.989 20.916,-54.281 l 0,-0.028 z" />
        </defs>
        <clipPath
           id="clipPath5987">
          <use
             height="100%"
             width="100%"
             y="0"
             x="0"
             style="overflow:visible"
             xlink:href="#SVGID_14_"
             overflow="visible"
             id="use5989" />
        </clipPath>
        <linearGradient
           id="linearGradient5991"
           gradientUnits="userSpaceOnUse"
           x1="435.79391"
           y1="185.6978"
           x2="435.79391"
           y2="-40.979301"
           gradientTransform="matrix(-0.8336,0.5523,-0.5523,-0.8336,693.7793,48.3833)">
          <stop
             offset="0"
             style="stop-color:#FFFFFF"
             id="stop5993" />
          <stop
             offset="1"
             style="stop-color:#FFFFFF;stop-opacity:0"
             id="stop5995" />
        </linearGradient>
        <path
           style="display:none;opacity:0.41000001;fill:url(#SVGID_16_)"
           display="none"
           clip-path="url(#SVGID_15_)"
           d="m 357.565,79.174 c 0,0 -59.844,-6.433 -126.255,37.571 -66.411,44.003 -95.886,87.025 -101.183,113.127 -5.297,26.103 74.778,54.018 74.778,54.018 l 67.341,-13.029 84.955,-63.089 16.607,-53.389 -16.243,-75.209 z"
           id="path4776" />
        <linearGradient
           id="linearGradient5998"
           gradientUnits="userSpaceOnUse"
           x1="271.20801"
           y1="129.9951"
           x2="186.9093"
           y2="-22.3363"
           gradientTransform="matrix(0.9708,-0.24,0.24,0.9708,-34.4707,93.5142)">
          <stop
             offset="0"
             style="stop-color:#FFFFFF"
             id="stop6000" />
          <stop
             offset="1"
             style="stop-color:#FFFFFF;stop-opacity:0"
             id="stop6002" />
        </linearGradient>
        <path
           style="opacity:0.43000004;fill:url(#SVGID_17_)"
           clip-path="url(#SVGID_15_)"
           d="m 123.478,285.951 c 0,0 68.949,-142.968 256.041,-183.039 C 566.611,62.841 288.413,5.691 241.744,20.318 195.075,34.945 54.718,67.182 46.112,94.875 c -8.604,27.692 53.151,174.378 58.632,177.799 5.482,3.42 18.734,13.277 18.734,13.277 z"
           id="path4783" />
        <linearGradient
           id="linearGradient6005"
           gradientUnits="userSpaceOnUse"
           x1="263.91019"
           y1="154.6133"
           x2="202.4749"
           y2="43.597">
          <stop
             offset="0"
             style="stop-color:#FFFFFF"
             id="stop6007" />
          <stop
             offset="1"
             style="stop-color:#FFFFFF;stop-opacity:0"
             id="stop6009" />
        </linearGradient>
        <path
           style="opacity:0.6;fill:url(#SVGID_18_)"
           clip-path="url(#SVGID_15_)"
           d="m 443.483,71.049 c 0.496,10.763 -17.197,21.847 -63.965,31.864 -187.092,40.07 -256.041,183.039 -256.041,183.039 0,0 -13.252,-9.857 -18.733,-13.278 -4.624,-2.886 -49.317,-107.779 -57.997,-157.113 7.64,48.289 53.682,156.479 58.38,159.41 5.481,3.421 18.733,13.278 18.733,13.278 0,0 68.95,-142.969 256.041,-183.04 50.103,-10.73 66.834,-22.686 63.582,-34.16 z"
           id="path4790" />
      </g>
      <g
         transform="translate(9.6188857,10.487043)"
         id="g4792">
        <defs
           id="defs4794">
          <path
             id="SVGID_19_"
             d="m 351.652,157.667 0,-0.029 C 351.631,120.833 369.253,88.383 349.864,69.02 326.51,45.696 294.662,16.868 271.998,16.868 l -0.257,0 2.234,-5.387 c -15.663,0.021 -70.4,5.617 -96.186,19.965 -15.925,8.86 -32.461,49.476 -40.501,66.027 -8.126,16.73 -12.247,37.561 -12.247,61.912 0,35.622 10.135,63.497 30.124,82.851 13.913,13.471 39.972,29.53 85.097,29.53 1.688,0 3.422,-0.023 5.172,-0.068 l -0.064,-17.466 c -1.709,0.048 -3.418,0.073 -5.089,0.073 -39.299,0 -61.372,-13.384 -72.97,-24.613 -16.461,-15.938 -24.808,-39.592 -24.808,-70.306 0,-38.767 11.534,-95.697 33.271,-111.14 20.624,-14.652 56.398,-51.75 98.215,-19.303 l 5.035,1.303 3.25,3.5 c 19.391,0 36.122,28.525 55.25,47.628 16.012,15.992 -3.334,44.327 -3.335,76.387 l 0,0.021 0,0.02 -0.001,0.05 0.003,0.107 0.002,0.023 0,0.023 c 0.001,0.063 0.096,6.437 -1.873,14.774 -2.57,10.885 -7.507,20.291 -14.277,27.201 -10.605,10.825 -26.149,16.314 -46.197,16.314 -13.211,0 -24.445,-1.125 -33.393,-3.343 -9.299,-2.306 -16.402,-5.866 -21.113,-10.583 -9.854,-9.867 -9.834,-24.654 -9.812,-41.776 l 0.002,-2.299 c 0,-18.395 0.083,-27.255 0.152,-31.448 l 0.03,-1.781 1.457,-1.024 25.979,-18.262 2.012,-1.415 2.014,1.415 26.259,18.459 1.487,1.045 0,1.818 0,59.907 17.461,0 0,-42.71 0,-6.738 5.514,3.875 11.378,7.998 10.042,-14.286 -74.154,-52.141 -74.153,52.141 10.042,14.285 11.527,-8.103 5.533,-3.891 -0.021,6.765 c -0.014,4.171 -0.021,8.913 -0.021,14.094 l -0.002,2.272 c -0.012,9.495 -0.025,19.312 1.894,28.737 2.126,10.446 6.386,18.755 13.024,25.401 12.979,12.996 34.226,19.049 66.861,19.049 25.05,0 44.863,-7.328 58.891,-21.78 20.863,-21.498 20.972,-50.989 20.916,-54.281 l 0,-0.027 z" />
        </defs>
        <clipPath
           id="clipPath6015">
          <use
             height="100%"
             width="100%"
             y="0"
             x="0"
             style="overflow:visible"
             xlink:href="#SVGID_19_"
             overflow="visible"
             id="use6017" />
        </clipPath>
        <radialGradient
           id="radialGradient6019"
           cx="236.52541"
           cy="96.495598"
           r="71.75"
           gradientUnits="userSpaceOnUse">
          <stop
             offset="0"
             style="stop-color:#E05121"
             id="stop6021" />
          <stop
             offset="1"
             style="stop-color:#FFFFFF;stop-opacity:0"
             id="stop6023" />
        </radialGradient>
        <circle
           style="fill:url(#SVGID_21_)"
           clip-path="url(#SVGID_20_)"
           cx="236.52499"
           cy="96.496002"
           r="71.75"
           id="circle4805" />
      </g>
    </g>
  </g>
</svg>
